<?xml version="1.0" encoding="utf-8"?>
<!-- Generator: Adobe Illustrator 16.0.3, SVG Export Plug-In . SVG Version: 6.00 Build 0)  -->
<!DOCTYPE svg PUBLIC "-//W3C//DTD SVG 1.1//EN" "http://www.w3.org/Graphics/SVG/1.1/DTD/svg11.dtd">
<svg version="1.1" id="Layer_1" xmlns="http://www.w3.org/2000/svg" xmlns:xlink="http://www.w3.org/1999/xlink" x="0px" y="0px"
	 width="598.333px" height="473.9971px" viewBox="0 0 598.333 473.9971" enable-background="new 0 0 598.333 473.9971"
	 xml:space="preserve">
<g>
	<g>
		<path d="M325.501,155.9932c-3.9336,10.2646-13.9678,20.375-25.8271,16.5957c-14.0024-4.4619-11.9185-23.9736-7.0093-34.0854
			c5.4053-11.1323,17.1089-15.5054,28.521-10.3774C332.0859,133.0234,328.541,147.2813,325.501,155.9932
			c-0.8516,2.4424,3.0127,3.4824,3.8574,1.0635c4.0439-11.5908,6.1172-26.8716-7.3125-32.9053
			c-13.8027-6.2017-27.2065,0.7402-33.4277,13.5537c-5.873,12.0962-5.9629,32.314,8.8301,38.2729
			c14.292,5.7573,27.1035-6.3789,31.9102-18.9214C330.2832,154.644,326.4141,153.6104,325.501,155.9932z"/>
	</g>
</g>
<g>
	<g>
		<path d="M303.9287,180.9468c0.333-1.6479,0.6665-3.2954,1-4.9434c0.2158-1.0674-0.2925-2.1563-1.397-2.4604
			c-0.9956-0.2734-2.2441,0.3281-2.4604,1.397c-0.333,1.6479-0.6665,3.2954-1,4.9434c-0.2158,1.0674,0.2925,2.1563,1.397,2.4604
			C302.4639,182.6172,303.7124,182.0156,303.9287,180.9468L303.9287,180.9468z"/>
	</g>
</g>
<g>
	<g>
		<path d="M300.25,228.915c1.25-15.75,2.5-31.5,3.75-47.25c0.2041-2.5732-3.7974-2.5537-4,0c-1.25,15.75-2.5,31.5-3.75,47.25
			C296.0459,231.4883,300.0474,231.4688,300.25,228.915L300.25,228.915z"/>
	</g>
</g>
<g>
	<g>
		<path d="M275.1162,296.2588c8.2417-24.4229,17.7998-48.376,25.4375-72.9995c0.7661-2.4707-3.0957-3.519-3.8574-1.0635
			c-7.6377,24.6235-17.1953,48.5776-25.4375,73.0005C270.4316,297.6465,274.2959,298.6895,275.1162,296.2588L275.1162,296.2588z"/>
	</g>
</g>
<g>
	<g>
		<path d="M328.4365,296.709c-9.0303-23.9512-20.4199-46.917-27.8828-71.4502c-0.7485-2.4609-4.6099-1.4116-3.8574,1.0625
			c7.4639,24.5371,18.8516,47.498,27.8828,71.4502C325.4805,300.1621,329.3486,299.127,328.4365,296.709L328.4365,296.709z"/>
	</g>
</g>
<g>
	<g>
		<path d="M302.248,180.9795c-4.5112-3.7007-9.0337-7.3882-13.5659-11.063c-2.9878-2.4229-5.981-4.8394-8.999-7.2246
			c-1.2529-0.9902-2.6045-2.3882-4.1172-2.9722c-1.8076-0.6982-2.5825,2.2036-0.7979,2.8926
			c0.8755,0.3379,3.3584,2.6455,4.5669,3.6074c2.9375,2.3384,5.8535,4.7041,8.769,7.0698c4.0161,3.2598,8.0234,6.5308,12.0229,9.811
			C301.6094,184.3169,303.7451,182.207,302.248,180.9795L302.248,180.9795z"/>
	</g>
</g>
<g>
	<g>
		<path d="M276.2329,160.1895c-3.4341-4.6846-6.8853-9.3564-10.3516-14.0171c-2.2798-3.0645-4.5674-6.124-6.894-9.1533
			c-0.9014-1.1743-1.8984-3.063-3.2305-3.8154c-1.6865-0.9521-3.1982,1.6396-1.5137,2.5908
			c0.7295,0.4121,2.6431,3.3735,3.5161,4.521c2.2598,2.9683,4.4858,5.9629,6.7109,8.9575
			c3.0708,4.1333,6.1274,8.2773,9.1719,12.4302C274.7734,163.2461,277.3784,161.752,276.2329,160.1895L276.2329,160.1895z"/>
	</g>
</g>
<g>
	<g>
		<path d="M247.2798,153.6523l1.7964-6.918l1.8364-6.8135l0.104-0.3857c0.5449-1.8828,1.6421-3.7065,3.1475-5.3579
			c0,0,4.29-4.7026,5.4287-5.9497c1.1387-1.2476,2.5259-1.2617,3.0327-1.8174c0.5078-0.5576,0.3735-1.1128-0.061-1.5098
			l-6.3408-5.7847c-0.4355-0.3975-1.0181-0.4717-1.5254,0.0845c-0.5073,0.5566-0.4141,1.9902-1.5356,3.2188
			c-1.1196,1.2285-5.3994,5.918-5.3994,5.918c-1.5054,1.6509-3.271,2.8525-5.1021,3.5742l-0.3374,0.1377l-6.6089,2.4946
			l-6.7153,2.4189c-0.8159,0.311-1.6353,0.8774-2.3062,1.6128c-1.6338,1.7915-2.2314,4.083,0.1133,6.2231l12.8818,11.7524
			c2.3496,2.1445,4.5732,1.3354,6.207-0.4556C246.562,155.355,247.0439,154.4941,247.2798,153.6523z M243.1846,155.1694
			c-0.4648,0.0669-0.9883-0.082-1.6333-0.6704l-12.8813-11.7524c-0.6411-0.5835-0.8652-1.1416-0.8403-1.6108
			c0.0176-0.2896,0.0967-0.709,0.4663-1.1118c0.2915-0.3198,0.6528-0.5752,1.0112-0.7183l6.6821-2.4023l0.0166-0.0083l0.0166-0.0078
			l6.5879-2.4897l0.4355-0.1763c2.2563-0.896,4.4619-2.4004,6.3125-4.4277l4.3433-4.7607c0.356-0.3896,1.0503-1.1406,1.2456-1.4658
			c0.8169-1.377,0.9844-0.9673,1.4238-0.5649l2.3506,2.1431c0.4395,0.4019,0.8013,0.4976-0.4619,1.4204
			c-0.2783,0.2036-0.9668,0.9585-1.3516,1.3809l-4.3438,4.7598c-1.8208,1.9966-3.1885,4.2778-3.8828,6.6572
			c-0.0591,0.1934-0.1313,0.4658-0.1313,0.4658l-1.8193,6.7935l-0.0068,0.0176l-0.0063,0.0176l-1.7822,6.8735
			c-0.1074,0.3706-0.3296,0.7529-0.6221,1.0742C243.9404,155.0137,243.4717,155.126,243.1846,155.1694z"/>
		<path d="M239.9707,136.5264C239.9326,136.5386,239.4761,136.708,239.9707,136.5264L239.9707,136.5264z"/>
	</g>
</g>
<path fill="none" stroke="#000000" stroke-width="2" stroke-miterlimit="10" d="M384.1367,153.6787
	c3.0908,9.3037,5.1963,10.0024-3.376,12.7646l-3.6768,1.6387c-7.6797,4.4858-7.5-4.833-10.25-9l-5.25-14.083
	c-1.8838-5.8433-5.3779-10.3809,3.8857-12.8794l3.4385-1.1084c3.9629-1.2773,7.1992-3.7803,10.5869,8.2671L384.1367,153.6787z"/>
<path fill="none" stroke="#000000" stroke-width="0.75" stroke-miterlimit="10" d="M377.7256,141.2715
	c0.5605,1.6152-0.3193,3.3848-1.9658,3.9556l-7.4902,2.5991c-1.6465,0.5718-3.4326-0.2739-3.9941-1.8872l-2.3223-6.6958
	c-0.5625-1.6138,0.3184-3.3843,1.9639-3.9561l7.4902-2.5986c1.6475-0.5708,3.4326,0.2734,3.9971,1.8877L377.7256,141.2715z"/>
<g>
	<g>
		<path d="M248.2285,144.5615c-1.4585-1.2085-2.9165-2.4165-4.375-3.625c-0.4927-0.4082-1.2041,0.2954-0.707,0.707
			c1.4585,1.2085,2.9165,2.4165,4.375,3.625C248.0142,145.6768,248.7256,144.9731,248.2285,144.5615L248.2285,144.5615z"/>
	</g>
</g>
<g>
	<g>
		<path d="M246.041,151.1733c-2.1875-1.7456-4.375-3.4912-6.5625-5.2368c-0.4985-0.3979-1.2109,0.3047-0.707,0.707
			c2.1875,1.7456,4.375,3.4912,6.5625,5.2368C245.8325,152.2783,246.5449,151.5757,246.041,151.1733L246.041,151.1733z"/>
	</g>
</g>
<path fill="none" stroke="#000000" stroke-width="0.25" stroke-miterlimit="10" d="M368.6445,150.0337
	c0.0332,0.0952-0.1016,0.228-0.3018,0.2979l-2.4102,0.835c-0.2002,0.0688-0.3877,0.0483-0.4209-0.0474l-0.3594-1.0381
	c-0.0332-0.0952,0.1016-0.2285,0.3018-0.2979l2.4102-0.835c0.1992-0.0693,0.3877-0.0483,0.4209,0.0469L368.6445,150.0337z"/>
<path fill="none" stroke="#000000" stroke-width="0.25" stroke-miterlimit="10" d="M372.3945,148.731
	c0.0332,0.0952-0.1016,0.228-0.3018,0.2979l-2.4102,0.835c-0.2002,0.0688-0.3877,0.0483-0.4209-0.0474l-0.3594-1.0381
	c-0.0332-0.0952,0.1016-0.2285,0.3018-0.2979l2.4102-0.835c0.1992-0.0693,0.3877-0.0483,0.4209,0.0469L372.3945,148.731z"/>
<path fill="none" stroke="#000000" stroke-width="0.25" stroke-miterlimit="10" d="M376.0264,147.4385
	c0.0332,0.0952-0.1016,0.228-0.3018,0.2979l-2.4102,0.835c-0.2002,0.0688-0.3877,0.0483-0.4209-0.0474l-0.3594-1.0381
	c-0.0332-0.0952,0.1016-0.2285,0.3018-0.2979l2.4102-0.835c0.1992-0.0693,0.3877-0.0483,0.4209,0.0469L376.0264,147.4385z"/>
<path fill="none" stroke="#000000" stroke-width="0.25" stroke-miterlimit="10" d="M379.6406,146.1992
	c0.0332,0.0952-0.1016,0.228-0.3018,0.2979l-2.4102,0.835c-0.2002,0.0688-0.3877,0.0483-0.4209-0.0474l-0.3594-1.0381
	c-0.0332-0.0952,0.1016-0.2285,0.3018-0.2979l2.4102-0.835c0.1992-0.0693,0.3877-0.0483,0.4209,0.0469L379.6406,146.1992z"/>
<path fill="none" stroke="#000000" stroke-width="0.25" stroke-miterlimit="10" d="M369.8428,152.9355
	c0.0332,0.0952-0.1016,0.228-0.3018,0.2979l-2.4102,0.835c-0.2002,0.0688-0.3877,0.0483-0.4209-0.0474l-0.3594-1.0381
	c-0.0332-0.0952,0.1016-0.2285,0.3018-0.2979l2.4102-0.835c0.1992-0.0693,0.3877-0.0483,0.4209,0.0469L369.8428,152.9355z"/>
<path fill="none" stroke="#000000" stroke-width="0.25" stroke-miterlimit="10" d="M373.5928,151.6328
	c0.0332,0.0952-0.1016,0.228-0.3018,0.2979l-2.4102,0.835c-0.2002,0.0688-0.3877,0.0483-0.4209-0.0474l-0.3594-1.0381
	c-0.0332-0.0952,0.1016-0.2285,0.3018-0.2979l2.4102-0.835c0.1992-0.0693,0.3877-0.0483,0.4209,0.0469L373.5928,151.6328z"/>
<path fill="none" stroke="#000000" stroke-width="0.25" stroke-miterlimit="10" d="M370.5225,154.853
	c0.0332,0.0952-0.1016,0.228-0.3018,0.2979l-2.4102,0.835c-0.2002,0.0688-0.3877,0.0483-0.4209-0.0474l-0.3594-1.0381
	c-0.0332-0.0952,0.1016-0.2285,0.3018-0.2979l2.4102-0.835c0.1992-0.0693,0.3877-0.0483,0.4209,0.0469L370.5225,154.853z"/>
<path fill="none" stroke="#000000" stroke-width="0.25" stroke-miterlimit="10" d="M374.2725,153.5503
	c0.0332,0.0952-0.1016,0.228-0.3018,0.2979l-2.4102,0.835c-0.2002,0.0688-0.3877,0.0483-0.4209-0.0474l-0.3594-1.0381
	c-0.0332-0.0952,0.1016-0.2285,0.3018-0.2979l2.4102-0.835c0.1992-0.0693,0.3877-0.0483,0.4209,0.0469L374.2725,153.5503z"/>
<path fill="none" stroke="#000000" stroke-width="0.25" stroke-miterlimit="10" d="M371.2148,156.7705
	c0.0332,0.0952-0.1016,0.228-0.3018,0.2979l-2.4102,0.835c-0.2002,0.0688-0.3877,0.0483-0.4209-0.0474l-0.3594-1.0381
	c-0.0332-0.0952,0.1016-0.2285,0.3018-0.2979l2.4102-0.835c0.1992-0.0693,0.3877-0.0483,0.4209,0.0469L371.2148,156.7705z"/>
<path fill="none" stroke="#000000" stroke-width="0.25" stroke-miterlimit="10" d="M374.9648,155.4678
	c0.0332,0.0952-0.1016,0.228-0.3018,0.2979l-2.4102,0.835c-0.2002,0.0688-0.3877,0.0483-0.4209-0.0474l-0.3594-1.0381
	c-0.0332-0.0952,0.1016-0.2285,0.3018-0.2979l2.4102-0.835c0.1992-0.0693,0.3877-0.0483,0.4209,0.0469L374.9648,155.4678z"/>
<path fill="none" stroke="#000000" stroke-width="0.25" stroke-miterlimit="10" d="M378.5967,154.1753
	c0.0332,0.0952-0.1016,0.228-0.3018,0.2979l-2.4102,0.835c-0.2002,0.0688-0.3877,0.0483-0.4209-0.0474l-0.3594-1.0381
	c-0.0332-0.0952,0.1016-0.2285,0.3018-0.2979l2.4102-0.835c0.1992-0.0693,0.3877-0.0483,0.4209,0.0469L378.5967,154.1753z"/>
<path fill="none" stroke="#000000" stroke-width="0.25" stroke-miterlimit="10" d="M382.2109,152.936
	c0.0332,0.0952-0.1016,0.228-0.3018,0.2979l-2.4102,0.835c-0.2002,0.0688-0.3877,0.0483-0.4209-0.0474l-0.3594-1.0381
	c-0.0332-0.0952,0.1016-0.2285,0.3018-0.2979l2.4102-0.835c0.1992-0.0693,0.3877-0.0483,0.4209,0.0469L382.2109,152.936z"/>
<path fill="none" stroke="#000000" stroke-width="0.25" stroke-miterlimit="10" d="M371.9199,158.7368
	c0.0332,0.0952-0.1016,0.228-0.3018,0.2979l-2.4102,0.835c-0.2002,0.0688-0.3877,0.0483-0.4209-0.0474l-0.3594-1.0381
	c-0.0332-0.0952,0.1016-0.2285,0.3018-0.2979l2.4102-0.835c0.1992-0.0693,0.3877-0.0483,0.4209,0.0469L371.9199,158.7368z"/>
<path fill="none" stroke="#000000" stroke-width="0.25" stroke-miterlimit="10" d="M375.6699,157.4341
	c0.0332,0.0952-0.1016,0.228-0.3018,0.2979l-2.4102,0.835c-0.2002,0.0688-0.3877,0.0483-0.4209-0.0474l-0.3594-1.0381
	c-0.0332-0.0952,0.1016-0.2285,0.3018-0.2979l2.4102-0.835c0.1992-0.0693,0.3877-0.0483,0.4209,0.0469L375.6699,157.4341z"/>
<path fill="none" stroke="#000000" stroke-width="0.25" stroke-miterlimit="10" d="M379.3018,156.1416
	c0.0332,0.0952-0.1016,0.228-0.3018,0.2979l-2.4102,0.835c-0.2002,0.0688-0.3877,0.0483-0.4209-0.0474l-0.3594-1.0381
	c-0.0332-0.0952,0.1016-0.2285,0.3018-0.2979l2.4102-0.835c0.1992-0.0693,0.3877-0.0483,0.4209,0.0469L379.3018,156.1416z"/>
<path fill="none" stroke="#000000" stroke-width="0.25" stroke-miterlimit="10" d="M382.916,154.9023
	c0.0332,0.0952-0.1016,0.228-0.3018,0.2979l-2.4102,0.835c-0.2002,0.0688-0.3877,0.0483-0.4209-0.0474l-0.3594-1.0381
	c-0.0332-0.0952,0.1016-0.2285,0.3018-0.2979l2.4102-0.835c0.1992-0.0693,0.3877-0.0483,0.4209,0.0469L382.916,154.9023z"/>
<path fill="none" stroke="#000000" stroke-width="0.25" stroke-miterlimit="10" d="M372.6328,160.6543
	c0.0332,0.0952-0.1016,0.228-0.3018,0.2979l-2.4102,0.835c-0.2002,0.0688-0.3877,0.0483-0.4209-0.0474l-0.3594-1.0381
	c-0.0332-0.0952,0.1016-0.2285,0.3018-0.2979l2.4102-0.835c0.1992-0.0693,0.3877-0.0483,0.4209,0.0469L372.6328,160.6543z"/>
<path fill="none" stroke="#000000" stroke-width="0.25" stroke-miterlimit="10" d="M376.3828,159.3516
	c0.0332,0.0952-0.1016,0.228-0.3018,0.2979l-2.4102,0.835c-0.2002,0.0688-0.3877,0.0483-0.4209-0.0474l-0.3594-1.0381
	c-0.0332-0.0952,0.1016-0.2285,0.3018-0.2979l2.4102-0.835c0.1992-0.0693,0.3877-0.0483,0.4209,0.0469L376.3828,159.3516z"/>
<path fill="none" stroke="#000000" stroke-width="0.25" stroke-miterlimit="10" d="M380.0146,158.0591
	c0.0332,0.0952-0.1016,0.228-0.3018,0.2979l-2.4102,0.835c-0.2002,0.0688-0.3877,0.0483-0.4209-0.0474l-0.3594-1.0381
	c-0.0332-0.0952,0.1016-0.2285,0.3018-0.2979l2.4102-0.835c0.1992-0.0693,0.3877-0.0483,0.4209,0.0469L380.0146,158.0591z"/>
<path fill="none" stroke="#000000" stroke-width="0.25" stroke-miterlimit="10" d="M383.6289,156.8198
	c0.0332,0.0952-0.1016,0.228-0.3018,0.2979l-2.4102,0.835c-0.2002,0.0688-0.3877,0.0483-0.4209-0.0474l-0.3594-1.0381
	c-0.0332-0.0952,0.1016-0.2285,0.3018-0.2979l2.4102-0.835c0.1992-0.0693,0.3877-0.0483,0.4209,0.0469L383.6289,156.8198z"/>
<path fill="none" stroke="#000000" stroke-width="0.25" stroke-miterlimit="10" d="M373.3447,162.5718
	c0.0332,0.0952-0.1016,0.228-0.3018,0.2979l-2.4102,0.835c-0.2002,0.0688-0.3877,0.0483-0.4209-0.0474l-0.3594-1.0381
	c-0.0332-0.0952,0.1016-0.2285,0.3018-0.2979l2.4102-0.835c0.1992-0.0693,0.3877-0.0483,0.4209,0.0469L373.3447,162.5718z"/>
<path fill="none" stroke="#000000" stroke-width="0.25" stroke-miterlimit="10" d="M377.0947,161.269
	c0.0332,0.0952-0.1016,0.228-0.3018,0.2979l-2.4102,0.835c-0.2002,0.0688-0.3877,0.0483-0.4209-0.0474l-0.3594-1.0381
	c-0.0332-0.0952,0.1016-0.2285,0.3018-0.2979l2.4102-0.835c0.1992-0.0693,0.3877-0.0483,0.4209,0.0469L377.0947,161.269z"/>
<path fill="none" stroke="#000000" stroke-width="0.25" stroke-miterlimit="10" d="M380.7266,159.9766
	c0.0332,0.0952-0.1016,0.228-0.3018,0.2979l-2.4102,0.835c-0.2002,0.0688-0.3877,0.0483-0.4209-0.0474l-0.3594-1.0381
	c-0.0332-0.0952,0.1016-0.2285,0.3018-0.2979l2.4102-0.835c0.1992-0.0693,0.3877-0.0483,0.4209,0.0469L380.7266,159.9766z"/>
<path fill="none" stroke="#000000" stroke-width="0.25" stroke-miterlimit="10" d="M384.3408,158.7373
	c0.0332,0.0952-0.1016,0.228-0.3018,0.2979l-2.4102,0.835c-0.2002,0.0688-0.3877,0.0483-0.4209-0.0474l-0.3594-1.0381
	c-0.0332-0.0952,0.1016-0.2285,0.3018-0.2979l2.4102-0.835c0.1992-0.0693,0.3877-0.0483,0.4209,0.0469L384.3408,158.7373z"/>
<path fill="none" stroke="#000000" stroke-width="0.25" stroke-miterlimit="10" d="M374.0244,164.4893
	c0.0332,0.0952-0.1016,0.228-0.3018,0.2979l-2.4102,0.835c-0.2002,0.0688-0.3877,0.0483-0.4209-0.0474l-0.3594-1.0381
	c-0.0332-0.0952,0.1016-0.2285,0.3018-0.2979l2.4102-0.835c0.1992-0.0693,0.3877-0.0483,0.4209,0.0469L374.0244,164.4893z"/>
<path fill="none" stroke="#000000" stroke-width="0.25" stroke-miterlimit="10" d="M377.7744,163.1865
	c0.0332,0.0952-0.1016,0.228-0.3018,0.2979l-2.4102,0.835c-0.2002,0.0688-0.3877,0.0483-0.4209-0.0474l-0.3594-1.0381
	c-0.0332-0.0952,0.1016-0.2285,0.3018-0.2979l2.4102-0.835c0.1992-0.0693,0.3877-0.0483,0.4209,0.0469L377.7744,163.1865z"/>
<path fill="none" stroke="#000000" stroke-width="0.25" stroke-miterlimit="10" d="M381.4063,161.894
	c0.0332,0.0952-0.1016,0.228-0.3018,0.2979l-2.4102,0.835c-0.2002,0.0688-0.3877,0.0483-0.4209-0.0474l-0.3594-1.0381
	c-0.0332-0.0952,0.1016-0.2285,0.3018-0.2979l2.4102-0.835c0.1992-0.0693,0.3877-0.0483,0.4209,0.0469L381.4063,161.894z"/>
<path fill="none" stroke="#000000" stroke-width="0.25" stroke-miterlimit="10" d="M385.0205,160.6548
	c0.0332,0.0952-0.1016,0.228-0.3018,0.2979l-2.4102,0.835c-0.2002,0.0688-0.3877,0.0483-0.4209-0.0474l-0.3594-1.0381
	c-0.0332-0.0952,0.1016-0.2285,0.3018-0.2979l2.4102-0.835c0.1992-0.0693,0.3877-0.0483,0.4209,0.0469L385.0205,160.6548z"/>
<path fill="none" stroke="#000000" stroke-width="0.25" stroke-miterlimit="10" d="M374.7168,166.4067
	c0.0332,0.0952-0.1016,0.228-0.3018,0.2979l-2.4102,0.835c-0.2002,0.0688-0.3877,0.0483-0.4209-0.0474l-0.3594-1.0381
	c-0.0332-0.0952,0.1016-0.2285,0.3018-0.2979l2.4102-0.835c0.1992-0.0693,0.3877-0.0483,0.4209,0.0469L374.7168,166.4067z"/>
<path fill="none" stroke="#000000" stroke-width="0.25" stroke-miterlimit="10" d="M378.4668,165.104
	c0.0332,0.0952-0.1016,0.228-0.3018,0.2979l-2.4102,0.835c-0.2002,0.0688-0.3877,0.0483-0.4209-0.0474l-0.3594-1.0381
	c-0.0332-0.0952,0.1016-0.2285,0.3018-0.2979l2.4102-0.835c0.1992-0.0693,0.3877-0.0483,0.4209,0.0469L378.4668,165.104z"/>
<path fill="none" stroke="#000000" stroke-width="0.25" stroke-miterlimit="10" d="M382.0986,163.8115
	c0.0332,0.0952-0.1016,0.228-0.3018,0.2979l-2.4102,0.835c-0.2002,0.0688-0.3877,0.0483-0.4209-0.0474l-0.3594-1.0381
	c-0.0332-0.0952,0.1016-0.2285,0.3018-0.2979l2.4102-0.835c0.1992-0.0693,0.3877-0.0483,0.4209,0.0469L382.0986,163.8115z"/>
<path fill="none" stroke="#000000" stroke-width="0.25" stroke-miterlimit="10" d="M385.7129,162.5723
	c0.0332,0.0952-0.1016,0.228-0.3018,0.2979l-2.4102,0.835c-0.2002,0.0688-0.3877,0.0483-0.4209-0.0474l-0.3594-1.0381
	c-0.0332-0.0952,0.1016-0.2285,0.3018-0.2979l2.4102-0.835c0.1992-0.0693,0.3877-0.0483,0.4209,0.0469L385.7129,162.5723z"/>
<path fill="none" stroke="#000000" stroke-width="0.25" stroke-miterlimit="10" d="M378.6426,148.9058
	c0.0205,0.0581-0.1055,0.1543-0.2822,0.2158l-2.1211,0.7354c-0.1768,0.061-0.334,0.063-0.3545,0.0044l-0.2197-0.6357
	c-0.0195-0.0581,0.1055-0.1548,0.2822-0.2158l2.1211-0.7349c0.1758-0.061,0.335-0.0635,0.3545-0.0054L378.6426,148.9058z"/>
<path fill="none" stroke="#000000" stroke-width="0.25" stroke-miterlimit="10" d="M379.6875,151.4927
	c0.0215,0.0581-0.1045,0.1548-0.2813,0.2163l-2.1211,0.7349c-0.1768,0.061-0.334,0.063-0.3555,0.0044l-0.2188-0.6333
	c-0.0195-0.0581,0.1055-0.1548,0.2822-0.2158l2.1211-0.7349c0.1758-0.061,0.335-0.0635,0.3545-0.0054L379.6875,151.4927z"/>
<path fill="none" stroke="#000000" stroke-width="0.25" stroke-miterlimit="10" d="M376.8574,151.0278
	c0.0225,0.062-0.0762,0.1523-0.2207,0.2026l-1.7334,0.6006c-0.1436,0.0498-0.2764,0.04-0.2988-0.0225l-0.2334-0.6753
	c-0.0205-0.062,0.0771-0.1528,0.2217-0.2026l1.7334-0.6001c0.1436-0.0503,0.2773-0.0405,0.2988,0.0215L376.8574,151.0278z"/>
<path fill="none" stroke="#000000" stroke-width="0.25" stroke-miterlimit="10" d="M380.9326,149.6689
	c0.0225,0.0625-0.0762,0.1533-0.2207,0.2041l-1.7334,0.6001c-0.1436,0.0498-0.2764,0.0396-0.2988-0.0229l-0.2344-0.6802
	c-0.0215-0.062,0.0762-0.1533,0.2207-0.2031l1.7334-0.6001c0.1436-0.0503,0.2773-0.04,0.2988,0.0225L380.9326,149.6689z"/>
<g>
	<g>
		<path d="M361.6807,152.814c-7.6533,4.4351-15.418,8.6855-23.2363,12.8223c-11.1875,5.9199-23.3164,13.2393-35.8433,15.8325
			c-1.8936,0.3921-1.0903,3.2837,0.7979,2.8926c12.0728-2.499,23.7476-9.4399,34.5552-15.0811
			c8.5088-4.4414,16.9355-9.063,25.2402-13.8755C364.8672,154.4351,363.3574,151.8423,361.6807,152.814L361.6807,152.814z"/>
	</g>
</g>
<path stroke="#000000" stroke-miterlimit="10" d="M363.2188,149.8213c-0.0576,0.5879-0.082,1.1182-0.4746,1.5566
	c-0.1367,0.1523-0.3252,0.2803-0.4551,0.4766c-0.2324,0.3511-0.3428,0.8027-0.4707,1.2041
	c-0.1992,0.627-0.2822,1.3125-0.0459,1.9336c0.0518,0.1348,0.0928,0.2705,0.2217,0.333c-0.0146,0.2383,0.2002,0.813,0.3564,0.9893
	c0.1895,0.2129,0.5498,0.2178,0.8057,0.2554c0.8174,0.1206,1.3887,0.1821,2.0156-0.4648c0.5977-0.6167,0.4268-1.2437,0.1729-1.9336
	c-0.1064-0.2886-0.0859-0.5698-0.1191-0.8828c-0.0313-0.2944-0.1924-0.5527-0.2627-0.8369
	c-0.8496-0.4399-0.2959-1.4521-0.0586-2.0664c0.208-0.5376,0.3311-1.5962-0.4082-1.7905c-0.3008-0.0791-0.6504,0.0718-0.8936,0.2412
	C363.2314,149.0957,363.2598,149.4077,363.2188,149.8213z"/>
<path stroke="#000000" stroke-miterlimit="10" d="M257,134.665c-0.5972-1.0767-0.0796-2.8638-0.1875-4.0659
	c-0.1006-1.124-1.3408-1.4189-2.2485-0.9951c-0.2412,0.1128-0.3594,0.3677-0.5776,0.4858
	c-0.2549,0.1377-0.5356,0.1206-0.7852,0.2764c-0.2808,0.1753-0.6665,0.5918-0.8901,0.877
	c-0.4917,0.6265-0.9805,1.6631-1.1724,2.4326c-0.4258,1.708,0.0269,3.1523,1.9238,3.2393c1.1553,0.0527,2.6118-1.3296,3.125-2.25
	H257z"/>
<path stroke="#000000" stroke-miterlimit="10" d="M249.249,123.9951c-0.3896,0.3076-0.2266,0.8838-0.3115,1.3574
	c-0.1445,0.8081-0.6553,0.5244-1.189,1.0796c-0.4248,0.4419-0.0737,0.8159-0.6724,1.1079c-0.6011,0.2939-1.2197-0.144-1.4526,0.625
	c-0.313,1.0342,0.2095,2.5542,1.2651,2.9248c0.6211,0.2178,2.1968,0.0771,2.1831-0.7905c0.3159-0.1548,0.8867-0.1147,1.1641-0.3359
	c0.3608-0.2876,0.251-0.8667,0.2734-1.2886c-0.0059,0.1133,0.8979-0.2153,0.981-0.2788c0.272-0.2075,0.4175-0.5068,0.519-0.8257
	c0.0522-0.1636,0.0317-0.3936,0.103-0.5425c0.1221-0.2568,0.1777-0.188,0.3267-0.3892c0.29-0.3896,0.4526-0.5513,0.4438-1.0933
	c-0.0112-0.7222-0.3286-1.2007-0.9927-1.4741C251.2349,123.8013,249.8511,123.519,249.249,123.9951z"/>
<path fill="none" stroke="#000000" stroke-width="0.5" stroke-miterlimit="10" d="M259.5,114.9155
	c-0.3154-0.0781-1.0244-0.2441-1.2725,0.0605c-0.2969,0.3643,0.2129,0.7993,0.0913,1.2578
	c-0.8042,0.3511-1.6406,0.6113-1.2212,1.6675c0.4531,0.1724,0.7905,0.1084,1.2358,0.0972c0.186-0.0049,1.0977,0.0854,1.2515,0.0059
	c0.5854-0.3018,0.0225-0.8154-0.0215-1.1519c-0.0688-0.5244,0.083-0.7837,0.1865-1.2705L259.5,114.9155z"/>
<path stroke="#000000" stroke-width="0.5" stroke-miterlimit="10" d="M255.667,106.3135c-0.061,1.2168,1.0601,1.8726,2.1709,2.085
	c0.938,0.1797,2.042-0.0127,2.4116-0.9023c0.436-1.0483-0.3066-2.9878-1.4717-3.2446
	C257.6206,103.9961,255.7295,105.0649,255.667,106.3135z"/>
<path stroke="#000000" stroke-width="0.5" stroke-miterlimit="10" d="M264.0898,116.5649c0.9805,0.5518,2.7095,0.8862,3.3608-0.2769
	c0.6504-1.1611,0.1846-3.1621-0.8672-3.9336c-1.0215-0.7495-3.0742-0.6836-3.7188,0.5166
	C262.2036,114.103,262.9448,115.9204,264.0898,116.5649z"/>
<path fill="none" stroke="#000000" stroke-width="2" stroke-miterlimit="10" d="M266.1606,98.9941
	c2.8013,1.25,5.1812-2.9346,1.9668-4.1514C264.9424,93.6372,262.8672,97.5244,266.1606,98.9941z"/>
<path fill="none" stroke="#000000" stroke-width="0.5" stroke-miterlimit="10" d="M262.5,92.4985
	c-0.2358-0.6704-0.4604-1.6445-0.583-2.4165"/>
<path fill="none" stroke="#000000" stroke-width="0.5" stroke-miterlimit="10" d="M260.3335,90.332
	c-0.4688,0.2148-1.0913,1.5361-1.1665,2.0835"/>
<path fill="none" stroke="#000000" stroke-width="0.5" stroke-miterlimit="10" d="M259,89.4155
	c-0.4775-0.0415-1.8789,0.7202-2.083,1.083"/>
<path fill="none" stroke="#000000" stroke-width="0.5" stroke-miterlimit="10" d="M256.917,87.582c0.8608,0,1.7222,0,2.583,0"/>
<path fill="none" stroke="#000000" stroke-width="0.5" stroke-miterlimit="10" d="M260.3335,86.4155
	c-0.4507-0.1934-0.8882-0.8882-1.25-1.25"/>
<path fill="none" stroke="#000000" stroke-width="0.5" stroke-miterlimit="10" d="M261.8335,86.2485
	c-0.3589-0.6167,0.3936-1.5405,0.5835-2.1665"/>
<path fill="none" stroke="#000000" stroke-width="0.5" stroke-miterlimit="10" d="M263.667,86.582
	c0.7021-0.6748,1.9092-1.0674,2.6665-1.75"/>
<path fill="none" stroke="#000000" stroke-width="0.5" stroke-miterlimit="10" d="M264.417,88.082
	c0.168,0.4268,1.3647,0.4961,1.833,0.5835"/>
<path fill="none" stroke="#000000" stroke-width="0.5" stroke-miterlimit="10" d="M263.5,89.6655
	c0.4023,0.4697,1.4321,0.9043,2.0835,1.083"/>
<g>
	<path d="M19.124,23.6675v6.7681h40.248c3.8394,0,5.7598,1.9438,5.7598,5.832v18.3599c0,3.8882-1.9204,5.832-5.7598,5.832H13.292
		c-1.8247,0-3.2285-0.5635-4.2119-1.6919c-0.9844-1.1274-1.4761-2.5078-1.4761-4.1401c0-1.584,0.4917-2.9395,1.4761-4.0679
		c0.9834-1.1274,2.3872-1.6919,4.2119-1.6919h40.3198v-6.8403H13.292c-3.7925,0-5.688-1.9189-5.688-5.7598V17.8354
		c0-3.8882,1.8955-5.832,5.688-5.832h46.0801c1.7754,0,3.1792,0.5762,4.2119,1.728c1.0317,1.1519,1.5479,2.52,1.5479,4.104
		s-0.5161,2.9521-1.5479,4.104c-1.0327,1.1519-2.4365,1.728-4.2119,1.728H19.124z"/>
	<path d="M105.1846,23.6675v31.5361c0,1.7764-0.5649,3.168-1.6924,4.1758c-1.1279,1.0083-2.4839,1.5122-4.0679,1.5122
		c-1.5366,0-2.8799-0.5039-4.0317-1.5122c-1.1523-1.0078-1.728-2.3994-1.728-4.1758V23.6675H76.3843
		c-1.8247,0-3.2397-0.5762-4.248-1.728c-1.0078-1.1519-1.5117-2.52-1.5117-4.104s0.5039-2.9521,1.5117-4.104
		c1.0083-1.1519,2.4233-1.728,4.248-1.728h46.0083c1.8232,0,3.251,0.5762,4.2837,1.728c1.0317,1.1519,1.5483,2.52,1.5483,4.104
		s-0.5166,2.9521-1.5483,4.104c-1.0327,1.1519-2.4604,1.728-4.2837,1.728H105.1846z"/>
	<path d="M127.5757,60.8916c-1.584,0-2.9766-0.5513-4.1758-1.6563c-1.2007-1.1035-1.8003-2.4478-1.8003-4.0317
		c0-1.0552,0.312-2.1118,0.936-3.168l21.3843-35.7124c0.8638-1.4399,1.7998-2.5796,2.8081-3.4199
		c1.0078-0.8389,2.3276-1.2598,3.96-1.2598c1.6309,0,2.9517,0.4082,3.96,1.2241c1.0078,0.8164,1.9673,1.9688,2.8799,3.4556
		l21.4561,35.7842c0.2881,0.5762,0.5151,1.1162,0.6841,1.6201c0.1675,0.5039,0.252,1.0205,0.252,1.5479
		c0,0.8169-0.1689,1.5605-0.5039,2.2319c-0.3364,0.6729-0.7808,1.2603-1.332,1.7642c-0.5527,0.5039-1.188,0.8999-1.9082,1.188
		s-1.4648,0.4321-2.2319,0.4321c-0.9609,0-1.8486-0.2051-2.6641-0.6123c-0.8169-0.4072-1.5122-1.0913-2.0879-2.0518l-6.48-10.6563
		h-24.0483l-6.3359,10.584C131.2231,59.98,129.6392,60.8916,127.5757,60.8916z M150.688,27.6274l-6.4082,10.6563h12.8159
		L150.688,27.6274z"/>
	<path d="M231.2271,44.2593V17.3315c0-1.8237,0.5762-3.2275,1.728-4.2119c1.1523-0.9834,2.4956-1.4761,4.0322-1.4761
		c1.584,0,2.9395,0.4927,4.0679,1.4761c1.1274,0.9844,1.6919,2.3882,1.6919,4.2119v36.5762c0,1.2485-0.1685,2.3037-0.5039,3.168
		c-0.3364,0.8638-0.792,1.584-1.3682,2.1597c-0.5757,0.5762-1.2236,0.9971-1.9438,1.2603c-0.7197,0.2632-1.4648,0.396-2.2319,0.396
		c-1.6807,0-3.168-0.5039-4.4639-1.5122l-35.4961-30.3838v26.208c0,1.7764-0.5762,3.168-1.728,4.1758
		c-1.1519,1.0083-2.52,1.5122-4.104,1.5122c-1.5366,0-2.8687-0.5039-3.9961-1.5122c-1.1284-1.0078-1.6919-2.3994-1.6919-4.1758
		v-37.728c0-1.8237,0.4556-3.2515,1.3682-4.2842c0.9111-1.0317,2.1113-1.5479,3.5996-1.5479c0.8159,0,1.728,0.1924,2.7363,0.5757
		c1.0078,0.3848,2.0396,1.0332,3.0957,1.9443L231.2271,44.2593z"/>
	<path d="M307.1211,54.6274c0,3.8882-1.9199,5.832-5.7598,5.832h-51.7676V12.0034h11.5195c6.1914,0,12.0723,1.0205,17.6406,3.0601
		c5.5664,2.0405,10.4512,4.9209,14.6523,8.6401c4.1992,3.7202,7.5352,8.208,10.0078,13.4639
		C305.8848,42.4233,307.1211,48.2441,307.1211,54.6274z M295.6016,48.8677c-0.4316-3.4561-1.6191-6.7075-3.5645-9.7563
		c-1.9434-3.0474-4.332-5.7114-7.1641-7.9917c-2.832-2.2793-5.9512-4.0918-9.3594-5.436
		c-3.4082-1.3433-6.8164-2.0161-10.2246-2.0161h-4.1758v25.2002H295.6016z"/>
	<path d="M403.835,54.6274c0,3.8882-1.9209,5.832-5.7598,5.832h-51.7686V12.0034h51.3359c3.8398,0,5.7607,1.9438,5.7607,5.832
		v12.6001c0,2.9282-1.7764,4.8003-5.3281,5.6157c3.8389,0.8643,5.7598,2.8564,5.7598,5.9761V54.6274z M392.3145,31.2993v-7.6318
		h-34.4873v7.6318H392.3145z M392.3145,48.8677v-7.7041h-34.4873v7.7041H392.3145z"/>
	<path d="M415.2109,60.8916c-1.584,0-2.9775-0.5513-4.1768-1.6563c-1.2002-1.1035-1.7998-2.4478-1.7998-4.0317
		c0-1.0552,0.3115-2.1118,0.9365-3.168l21.3838-35.7124c0.8643-1.4399,1.7998-2.5796,2.8076-3.4199
		c1.0078-0.8389,2.3281-1.2598,3.96-1.2598s2.9521,0.4082,3.96,1.2241c1.0088,0.8164,1.9678,1.9688,2.8799,3.4556l21.4561,35.7842
		c0.2881,0.5762,0.5156,1.1162,0.6846,1.6201c0.167,0.5039,0.252,1.0205,0.252,1.5479c0,0.8169-0.1689,1.5605-0.5039,2.2319
		c-0.3369,0.6729-0.7813,1.2603-1.332,1.7642c-0.5527,0.5039-1.1885,0.8999-1.9082,1.188s-1.4648,0.4321-2.2324,0.4321
		c-0.96,0-1.8477-0.2051-2.6631-0.6123c-0.8174-0.4072-1.5127-1.0913-2.0889-2.0518l-6.4795-10.6563h-24.0479l-6.3359,10.584
		C418.8574,59.98,417.2734,60.8916,415.2109,60.8916z M438.3223,27.6274l-6.4072,10.6563h12.8154L438.3223,27.6274z"/>
	<path d="M478.5771,60.4595c-3.793,0-5.6885-1.9438-5.6885-5.832v-36.792c0-3.8882,1.8955-5.832,5.6885-5.832h45.2158
		c1.8232,0,3.2402,0.5762,4.248,1.728s1.5117,2.52,1.5117,4.104s-0.5039,2.9521-1.5117,4.104s-2.4248,1.728-4.248,1.728h-39.4561
		v25.2002h39.4561c1.8232,0,3.2402,0.5645,4.248,1.6919c1.0078,1.1284,1.5117,2.4839,1.5117,4.0679
		c0,1.6323-0.5039,3.0127-1.5117,4.1401c-1.0078,1.1284-2.4248,1.6919-4.248,1.6919H478.5771z"/>
	<path d="M571.126,30.4355h16.5605c3.791,0,5.6875,1.9438,5.6875,5.832v18.936c0,1.7764-0.5645,3.168-1.6914,4.1758
		c-1.1289,1.0083-2.4609,1.5122-3.9961,1.5122c-1.5371,0-2.8799-0.5039-4.0322-1.5122c-1.1523-1.0078-1.7285-2.3994-1.7285-4.1758
		V42.0273h-34.5596v13.1763c0,1.7764-0.5762,3.168-1.7275,4.1758c-1.1523,1.0083-2.4971,1.5122-4.0322,1.5122
		c-1.5371,0-2.8691-0.5039-3.9961-1.5122c-1.1289-1.0078-1.6924-2.3994-1.6924-4.1758V17.3315c0-1.728,0.54-3.1074,1.6201-4.1401
		c1.0801-1.0317,2.4355-1.5479,4.0684-1.5479c1.6797,0,3.0596,0.5161,4.1396,1.5479c1.0801,1.0327,1.6201,2.4121,1.6201,4.1401
		v12.96l36.792-17.5679c0.7197-0.3354,1.4277-0.5996,2.124-0.792c0.6953-0.1914,1.3789-0.2881,2.0518-0.2881
		c1.5361,0,2.8193,0.4805,3.8525,1.4399c1.0313,0.9609,1.5479,2.4478,1.5479,4.4639c0,1.3447-0.3008,2.4121-0.9004,3.2041
		c-0.6006,0.792-1.5244,1.4287-2.7715,1.9082L571.126,30.4355z"/>
</g>
<g>
	<path d="M14.3442,370.4893c-1.1885,0-2.2056-0.3779-3.0513-1.1338c-0.8462-0.7568-1.269-1.7998-1.269-3.1328v-28.4033
		c0-1.3682,0.4229-2.4209,1.269-3.1592c0.8457-0.7373,1.8628-1.1074,3.0513-1.1074c1.1514,0,2.1504,0.3701,2.9966,1.1074
		c0.8457,0.7383,1.269,1.791,1.269,3.1592v28.4033c0,1.333-0.4233,2.376-1.269,3.1328
		C16.4946,370.1113,15.4956,370.4893,14.3442,370.4893z"/>
	<path d="M29.2534,331.3926c1.2231,0,2.2856,0.3975,3.186,1.1885c0.8994,0.792,1.3496,1.8184,1.3496,3.0781
		c0,0.5049-0.0723,0.9541-0.2158,1.3496l-1.8901,6.6426c-0.3237,1.0078-0.8555,1.7813-1.5928,2.3213
		c-0.7383,0.54-1.5391,0.8105-2.4028,0.8105c-1.2246,0-2.2866-0.3955-3.186-1.1885c-0.9004-0.791-1.3501-1.7813-1.3501-2.9697
		c0-0.5039,0.0718-0.9717,0.2158-1.4043l1.8901-6.6416c0.2876-1.0439,0.8101-1.8359,1.5659-2.376S28.3892,331.3926,29.2534,331.3926
		z"/>
	<path d="M59.6709,358.6631l12.96-22.4102c0.5039-0.8643,1.1787-1.5293,2.0249-1.998c0.8457-0.4668,1.6826-0.7021,2.5112-0.7021
		c1.0801,0,2.0249,0.3779,2.835,1.1348c0.8101,0.7559,1.2148,2.0342,1.2148,3.834v27.7012c0,1.333-0.4321,2.376-1.2959,3.1328
		c-0.8643,0.7559-1.8545,1.1338-2.9702,1.1338c-1.2241,0-2.2593-0.3779-3.105-1.1338c-0.8462-0.7568-1.269-1.7998-1.269-3.1328
		v-13.3379l-9.2876,15.2285c-0.9722,1.584-2.1787,2.376-3.6182,2.376c-1.5122,0-2.7363-0.792-3.6719-2.376l-9.2344-15.2285v13.3379
		c0,1.333-0.4316,2.376-1.2959,3.1328c-0.8638,0.7559-1.8896,1.1338-3.0776,1.1338c-1.1528,0-2.1519-0.3779-2.9971-1.1338
		c-0.8467-0.7568-1.269-1.7998-1.269-3.1328v-27.7012c0-1.7998,0.4048-3.0781,1.2148-3.834
		c0.8101-0.7568,1.7363-1.1348,2.7813-1.1348c0.8638,0,1.709,0.2354,2.5376,0.7021c0.8281,0.4688,1.4937,1.1338,1.998,1.998
		L59.6709,358.6631z"/>
	<path d="M154.9077,365.791c0,2.916-1.4229,4.374-4.2661,4.374h-34.5601c-2.8442,0-4.2661-1.458-4.2661-4.374v-27.5938
		c0-2.916,1.4219-4.374,4.2661-4.374h34.3442c1.3677,0,2.4385,0.4316,3.2129,1.2959c0.7734,0.8643,1.1611,1.8896,1.1611,3.0781
		c0,1.1875-0.3877,2.2139-1.1611,3.0781c-0.7744,0.8633-1.8452,1.2959-3.2129,1.2959h-30.0244v18.8994h25.9204v-5.1299h-12.96
		c-1.3687,0-2.4302-0.4229-3.186-1.2686c-0.7563-0.8457-1.1343-1.8633-1.1343-3.0508c0-1.1885,0.3779-2.2148,1.1343-3.0781
		c0.7559-0.8643,1.8174-1.2959,3.186-1.2959h21.5459V365.791z"/>
	<path d="M203.5015,365.791c0,2.916-1.4399,4.374-4.3198,4.374h-34.5601c-2.8442,0-4.2661-1.458-4.2661-4.374v-27.5938
		c0-2.916,1.4219-4.374,4.2661-4.374h34.5601c2.8799,0,4.3198,1.458,4.3198,4.374V365.791z M194.8618,361.4707v-18.8994h-25.8662
		v18.8994H194.8618z"/>
	<path d="M213.2163,370.4893c-1.1885,0-2.2056-0.3779-3.0513-1.1338c-0.8462-0.7568-1.269-1.7998-1.269-3.1328v-28.4033
		c0-1.3682,0.4229-2.4209,1.269-3.1592c0.8457-0.7373,1.8628-1.1074,3.0513-1.1074c1.1514,0,2.1504,0.3701,2.9966,1.1074
		c0.8457,0.7383,1.269,1.791,1.269,3.1592v28.4033c0,1.333-0.4233,2.376-1.269,3.1328
		C215.3667,370.1113,214.3677,370.4893,213.2163,370.4893z"/>
	<path d="M257.4473,358.0146v-20.1953c0-1.3682,0.4316-2.4209,1.2949-3.1592c0.8652-0.7373,1.8711-1.1074,3.0254-1.1074
		c1.1875,0,2.2031,0.3701,3.0508,1.1074c0.8457,0.7383,1.2676,1.791,1.2676,3.1592v27.4316c0,0.9365-0.125,1.7285-0.377,2.376
		c-0.252,0.6484-0.5938,1.1885-1.0254,1.6201c-0.4336,0.4316-0.918,0.7471-1.459,0.9453c-0.5391,0.1973-1.0977,0.2969-1.6738,0.2969
		c-1.2598,0-2.377-0.3779-3.3477-1.1338l-26.623-22.7881v19.6553c0,1.333-0.4316,2.376-1.2949,3.1328
		c-0.8652,0.7559-1.8906,1.1338-3.0781,1.1338c-1.1523,0-2.1519-0.3779-2.9971-1.1338c-0.8467-0.7568-1.269-1.7998-1.269-3.1328
		v-28.2959c0-1.3672,0.3418-2.4385,1.0259-3.2129c0.6836-0.7734,1.5835-1.1611,2.7002-1.1611c0.6123,0,1.2959,0.1445,2.0518,0.4326
		s1.5293,0.7744,2.3223,1.458L257.4473,358.0146z"/>
	<path d="M314.627,365.791c0,2.916-1.4219,4.374-4.2656,4.374h-34.5596c-2.8447,0-4.2666-1.458-4.2666-4.374v-27.5938
		c0-2.916,1.4219-4.374,4.2666-4.374h34.3438c1.3672,0,2.4385,0.4316,3.2129,1.2959c0.7734,0.8643,1.1611,1.8896,1.1611,3.0781
		c0,1.1875-0.3877,2.2139-1.1611,3.0781c-0.7744,0.8633-1.8457,1.2959-3.2129,1.2959h-30.0244v18.8994h25.9199v-5.1299h-12.96
		c-1.3682,0-2.4297-0.4229-3.1855-1.2686s-1.1338-1.8633-1.1338-3.0508c0-1.1885,0.3779-2.2148,1.1338-3.0781
		c0.7559-0.8643,1.8174-1.2959,3.1855-1.2959h21.5459V365.791z"/>
	<path d="M363.0635,342.5713v23.6514c0,1.333-0.4238,2.376-1.2686,3.1328c-0.8467,0.7559-1.8633,1.1338-3.0518,1.1338
		c-1.1523,0-2.1592-0.3779-3.0234-1.1338c-0.8643-0.7568-1.2959-1.7998-1.2959-3.1328v-23.6514h-12.96
		c-1.3691,0-2.4307-0.4326-3.1865-1.2959c-0.7559-0.8643-1.1338-1.8906-1.1338-3.0781c0-1.1885,0.3779-2.2139,1.1338-3.0781
		s1.8174-1.2959,3.1865-1.2959h34.5059c1.3672,0,2.4385,0.4316,3.2129,1.2959c0.7734,0.8643,1.1611,1.8896,1.1611,3.0781
		c0,1.1875-0.3877,2.2139-1.1611,3.0781c-0.7744,0.8633-1.8457,1.2959-3.2129,1.2959H363.0635z"/>
	<path d="M427.9336,365.791c0,2.916-1.4404,4.374-4.3203,4.374h-34.5596c-2.8447,0-4.2666-1.458-4.2666-4.374v-27.5938
		c0-2.916,1.4219-4.374,4.2666-4.374h34.5596c2.8799,0,4.3203,1.458,4.3203,4.374V365.791z M419.293,361.4707v-18.8994h-25.8652
		v18.8994H419.293z"/>
	<path d="M476.3711,342.5713v23.6514c0,1.333-0.4238,2.376-1.2686,3.1328c-0.8467,0.7559-1.8633,1.1338-3.0518,1.1338
		c-1.1523,0-2.1592-0.3779-3.0234-1.1338c-0.8643-0.7568-1.2959-1.7998-1.2959-3.1328v-23.6514h-12.96
		c-1.3691,0-2.4307-0.4326-3.1865-1.2959c-0.7559-0.8643-1.1338-1.8906-1.1338-3.0781c0-1.1885,0.3779-2.2139,1.1338-3.0781
		s1.8174-1.2959,3.1865-1.2959h34.5059c1.3672,0,2.4385,0.4316,3.2129,1.2959c0.7734,0.8643,1.1611,1.8896,1.1611,3.0781
		c0,1.1875-0.3877,2.2139-1.1611,3.0781c-0.7744,0.8633-1.8457,1.2959-3.2129,1.2959H476.3711z"/>
	<path d="M506.6807,358.2852v7.9375c0,1.333-0.4316,2.376-1.2959,3.1328c-0.8643,0.7559-1.8721,1.1338-3.0234,1.1338
		c-1.1533,0-2.1523-0.3779-2.9971-1.1338c-0.8467-0.7568-1.2695-1.7998-1.2695-3.1328v-28.0254c0-2.916,1.4219-4.374,4.2666-4.374
		h34.5596c2.8438,0,4.2656,1.458,4.2656,4.374v13.8242c0,2.8799-1.4219,4.3193-4.2656,4.3193h-12.7441l14.5801,5.7246
		c1.1152,0.4316,1.9346,1.0352,2.457,1.8086c0.5215,0.7744,0.7832,1.5752,0.7832,2.4033c0,0.54-0.0996,1.0615-0.2969,1.5654
		c-0.1982,0.5049-0.4863,0.9541-0.8643,1.3506s-0.8369,0.7109-1.377,0.9443c-0.54,0.2344-1.1523,0.3516-1.8359,0.3516
		c-0.6846,0-1.458-0.1807-2.3223-0.54L506.6807,358.2852z M532.6006,348.2949v-5.7236h-25.9199v5.7236H532.6006z"/>
	<path d="M567.0361,346.459l14.9033-11.8799c0.8643-0.6836,1.7637-1.0264,2.7002-1.0264c0.5752,0,1.125,0.127,1.6475,0.3779
		c0.5215,0.2529,0.9893,0.5947,1.4033,1.0264s0.7373,0.918,0.9727,1.458c0.2334,0.54,0.3506,1.0986,0.3506,1.6738
		c0,1.2959-0.5586,2.3945-1.6738,3.2939l-15.9297,12.6904v12.1494c0,1.2959-0.415,2.332-1.2422,3.1055
		c-0.8291,0.7744-1.8359,1.1611-3.0244,1.1611c-1.1523,0-2.1602-0.3867-3.0234-1.1611c-0.8643-0.7734-1.2969-1.8096-1.2969-3.1055
		v-12.1494l-15.8213-12.6904c-1.1162-0.8994-1.6738-1.9434-1.6738-3.1318c0-1.2598,0.4131-2.3574,1.2412-3.2939
		c0.8281-0.9355,1.8545-1.4043,3.0781-1.4043c0.9727,0,1.8721,0.3428,2.7002,1.0264L567.0361,346.459z"/>
</g>
<g>
</g>
<g>
	<path d="M34.5679,413.0654v9.3994h58.1362c5.5459,0,8.3198,2.7002,8.3198,8.1006v25.5c0,5.3994-2.7739,8.0996-8.3198,8.0996H26.144
		c-2.6357,0-4.6636-0.7832-6.084-2.3496c-1.4219-1.5664-2.1318-3.4834-2.1318-5.75c0-2.2002,0.71-4.083,2.1318-5.6504
		c1.4204-1.5654,3.4482-2.3496,6.084-2.3496h58.2397v-9.5H26.144c-5.478,0-8.2158-2.666-8.2158-8v-25.6006
		c0-5.3994,2.7378-8.0996,8.2158-8.0996h66.5601c2.564,0,4.5923,0.7998,6.084,2.3994c1.4902,1.6006,2.2358,3.5,2.2358,5.7002
		s-0.7456,4.1006-2.2358,5.7002c-1.4917,1.5996-3.52,2.4004-6.084,2.4004H34.5679z"/>
	<path d="M119.0977,464.165c-5.478,0-8.2158-2.7002-8.2158-8.0996v-51.1006c0-5.3994,2.7378-8.0996,8.2158-8.0996h65.312
		c2.6343,0,4.6802,0.7998,6.1357,2.3994c1.4561,1.6006,2.1841,3.5,2.1841,5.7002s-0.728,4.1006-2.1841,5.7002
		c-1.4556,1.5996-3.5015,2.4004-6.1357,2.4004h-56.9922v35h56.9922c2.6343,0,4.6802,0.7842,6.1357,2.3496
		c1.4561,1.5674,2.1841,3.4502,2.1841,5.6504c0,2.2666-0.728,4.1836-2.1841,5.75c-1.4556,1.5664-3.5015,2.3496-6.1357,2.3496
		H119.0977z"/>
	<path d="M210.1499,464.7646c-2.2881,0-4.2476-0.6992-5.876-2.0996c-1.6299-1.4004-2.4438-3.333-2.4438-5.7998v-52.6006
		c0-2.5322,0.814-4.4824,2.4438-5.8496c1.6284-1.3652,3.5879-2.0498,5.876-2.0498c2.2183,0,4.1421,0.6846,5.772,2.0498
		c1.6284,1.3672,2.4438,3.3174,2.4438,5.8496v52.6006c0,2.4668-0.8154,4.3994-2.4438,5.7998
		C214.292,464.0654,212.3682,464.7646,210.1499,464.7646z"/>
	<path d="M236.5029,464.165c-5.478,0-8.2158-2.7002-8.2158-8.0996v-51.1006c0-5.3994,2.7378-8.0996,8.2158-8.0996h66.248
		c2.6338,0,4.6963,0.7998,6.1875,2.3994c1.4902,1.6006,2.2363,3.5,2.2363,5.7002s-0.7461,4.1006-2.2363,5.7002
		c-1.4912,1.5996-3.5537,2.4004-6.1875,2.4004h-57.9277v9.3994h56.9912c2.6348,0,4.6807,0.7998,6.1367,2.4004
		c1.4561,1.5996,2.1836,3.5,2.1836,5.7002c0,2.1992-0.7275,4.084-2.1836,5.6494c-1.4561,1.5674-3.502,2.3506-6.1367,2.3506h-56.9912
		v9.5h58.2393c2.6348,0,4.6807,0.7842,6.1367,2.3496c1.4561,1.5674,2.1836,3.4502,2.1836,5.6504c0,2.2666-0.7275,4.1836-2.1836,5.75
		s-3.502,2.3496-6.1367,2.3496H236.5029z"/>
	<path d="M387.1777,441.665v-37.4004c0-2.5322,0.832-4.4824,2.4961-5.8496c1.6641-1.3652,3.6045-2.0498,5.8242-2.0498
		c2.2881,0,4.2461,0.6846,5.876,2.0498c1.6279,1.3672,2.4443,3.3174,2.4443,5.8496v50.8008c0,1.7344-0.2441,3.1992-0.7285,4.3994
		c-0.4854,1.2002-1.1436,2.2002-1.9756,3s-1.7686,1.3848-2.8086,1.75c-1.04,0.3662-2.1152,0.5498-3.2236,0.5498
		c-2.4277,0-4.5762-0.6992-6.4482-2.0996l-51.2715-42.2002v36.4004c0,2.4668-0.832,4.3994-2.4961,5.7998
		s-3.6406,2.0996-5.9287,2.0996c-2.2197,0-4.1436-0.6992-5.7715-2.0996c-1.6299-1.4004-2.4443-3.333-2.4443-5.7998v-52.4004
		c0-2.5322,0.6582-4.5156,1.9766-5.9502c1.3164-1.4326,3.0498-2.1494,5.1992-2.1494c1.1787,0,2.4961,0.2666,3.9521,0.7998
		c1.4561,0.5342,2.9463,1.4346,4.4727,2.7002L387.1777,441.665z"/>
	<path d="M421.8916,464.165c-5.4775,0-8.2158-2.7002-8.2158-8.0996v-51.1006c0-5.3994,2.7383-8.0996,8.2158-8.0996h65.3115
		c2.6348,0,4.6807,0.7998,6.1367,2.3994c1.4561,1.6006,2.1836,3.5,2.1836,5.7002s-0.7275,4.1006-2.1836,5.7002
		s-3.502,2.4004-6.1367,2.4004h-56.9912v35h56.9912c2.6348,0,4.6807,0.7842,6.1367,2.3496
		c1.4561,1.5674,2.1836,3.4502,2.1836,5.6504c0,2.2666-0.7275,4.1836-2.1836,5.75s-3.502,2.3496-6.1367,2.3496H421.8916z"/>
	<path d="M512.9326,464.165c-5.4775,0-8.2158-2.7002-8.2158-8.0996v-51.1006c0-5.3994,2.7383-8.0996,8.2158-8.0996h66.248
		c2.6338,0,4.6963,0.7998,6.1875,2.3994c1.4902,1.6006,2.2363,3.5,2.2363,5.7002s-0.7461,4.1006-2.2363,5.7002
		c-1.4912,1.5996-3.5537,2.4004-6.1875,2.4004h-57.9277v9.3994h56.9912c2.6348,0,4.6807,0.7998,6.1367,2.4004
		c1.4561,1.5996,2.1836,3.5,2.1836,5.7002c0,2.1992-0.7275,4.084-2.1836,5.6494c-1.4561,1.5674-3.502,2.3506-6.1367,2.3506h-56.9912
		v9.5h58.2393c2.6348,0,4.6807,0.7842,6.1367,2.3496c1.4561,1.5674,2.1836,3.4502,2.1836,5.6504c0,2.2666-0.7275,4.1836-2.1836,5.75
		s-3.502,2.3496-6.1367,2.3496H512.9326z"/>
</g>
<g>
</g>
<g>
</g>
<g>
</g>
<g>
</g>
<g>
</g>
<g>
</g>
</svg>
